<svg xmlns="http://www.w3.org/2000/svg" viewBox="0 0 175 168.5497"><path d="M106.1869,78.1465q2.0907-.0847,2.7779-.1141,18.1109-.7764,27.5475-1.87.7131-.0827,1.74-.2188a1.5626,1.5626,0,0,1,1.7528,1.3348q.2466,1.7795.3718,2.8359a168.302,168.302,0,0,1,1.11,19.8042,170.3393,170.3393,0,0,1-.9449,18.35q-.066.6065-.18,1.5529a1.5625,1.5625,0,0,1-1.7382,1.3644l-.0182-.0023q-.5572-.0735-.9442-.1225a282.2778,282.2778,0,0,0-29.9228-1.9814q-.5828-.0108-1.511-.0238a1.5626,1.5626,0,0,1-1.54-1.5625V79.7076a1.5624,1.5624,0,0,1,1.4994-1.5611ZM59.6906,119.841q-.1288-1.0722-.2015-1.7478a170.5528,170.5528,0,0,1-.9262-18.1746A167.3567,167.3567,0,0,1,59.76,79.3938q.1016-.82.289-2.159a1.5626,1.5626,0,0,1,1.764-1.3309l.0026,0q.9606.1372,1.9225.2643a262.8339,262.8339,0,0,0,28.21,1.9767q.6915.0147,1.8268.0332a1.5625,1.5625,0,0,1,1.5373,1.5623v37.7551a1.5625,1.5625,0,0,1-1.54,1.5625q-.7741.0111-1.2735.02a283.351,283.351,0,0,0-29.7066,1.95q-.6728.0846-1.3449.1744A1.5625,1.5625,0,0,1,59.693,119.86Zm35.6219-102.62V67.1182A1.5625,1.5625,0,0,1,93.75,68.6807l-.0258,0-.3859-.0067a257.1645,257.1645,0,0,1-28.4578-1.9361q-.4629-.0606-1.1381-.1543A1.5624,1.5624,0,0,1,62.41,64.8206a1.532,1.532,0,0,1,.03-.1546q.1183-.4869.2052-.8287C67.782,43.615,77.7709,28.04,92.626,16.9494q.3649-.2724.89-.65a1.1343,1.1343,0,0,1,1.7963.9213Zm9.375-.09a1.1055,1.1055,0,0,1,1.75-.8983q.6483.463,1.2857.9408c14.3809,10.8428,24.1612,25.9272,29.3536,45.4022q.2137.8013.5406,2.1369a1.5625,1.5625,0,0,1-1.1462,1.8892,1.5406,1.5406,0,0,1-.16.03q-.6821.0935-1.149.1535A253.8892,253.8892,0,0,1,108.7406,68.64q-.91.0207-2.4656.0457a1.5625,1.5625,0,0,1-1.5873-1.5373l0-.0249V17.1311ZM63.11,130.4473q1.4355-.1861,2.3261-.2907,12.0657-1.4141,27.0989-1.7011.4716-.0088,1.1916-.02a1.5625,1.5625,0,0,1,1.5859,1.5387l0,.0237v51.7695a1.5624,1.5624,0,0,1-2.4857,1.2607q-.5814-.4242-1.1526-.8623c-14.6129-11.2578-24.3816-26.9844-29.3209-47.34q-.2238-.9218-.5687-2.4947a1.5624,1.5624,0,0,1,1.1913-1.8611q.0664-.0146.1339-.0233Zm75.1613,1.8644q-.2307,1.0654-.4811,2.1264c-4.8613,20.3447-14.5195,36.0912-28.9886,47.3978q-.6442.5034-1.6286,1.2237a1.5624,1.5624,0,0,1-2.4853-1.2608V129.9961a1.5625,1.5625,0,0,1,1.5623-1.5627l.024,0q1.5774.024,2.4983.0441,14.3613.3126,25.9793,1.6778.8438.0984,2.1933.2728a1.5624,1.5624,0,0,1,1.3493,1.75q-.0087.0672-.0231.1333Zm12.5908-32.3929a179.1345,179.1345,0,0,0-1.123-20.4848q-.1641-1.4221-.5106-3.916a1.5626,1.5626,0,0,1,1.2086-1.74q.7206-.1591,1.4391-.3273,15.4261-3.6408,24.7025-10.124l.6451-.4514a1.5625,1.5625,0,0,1,2.3145.625q.5364,1.1622.8527,1.8955a87.8086,87.8086,0,0,1,1.1867,66.3135q-.292.7452-.5994,1.4843a1.5623,1.5623,0,0,1-2.3132.7012l-.46-.308q-9.6826-6.4842-25.9047-10.0443-.5578-.1231-1.4637-.3112a1.5624,1.5624,0,0,1-1.2332-1.72q.1242-1,.2357-2.0023a180.2179,180.2179,0,0,0,1.0227-19.59ZM127.7057,16.9774A87.7071,87.7071,0,0,1,171.443,49.469q.6908.975,1.8386,2.722a1.5625,1.5625,0,0,1-.41,2.1381l-1.7385,1.2168q-7.4142,5.1885-20.2357,8.3734-.7709.1908-2.0932.4907a1.5626,1.5626,0,0,1-1.8668-1.1674q-.13-.5556-.265-1.11-6.7422-27.4306-24.32-45.1289a.8221.8221,0,0,1,.8-1.3728q2.8757.7863,4.5541,1.3463ZM149.43,132.5209q1.0035.2112,2.0035.4389,13.6338,3.1447,21.4558,8.3894l1.8657,1.2494a1.5625,1.5625,0,0,1,.4722,2.0991q-.873,1.4628-1.407,2.3a87.7336,87.7336,0,0,1-46.5014,36.1535q-1.13.3713-2.8132.8457a1.2594,1.2594,0,0,1-1.2479-2.0867q17.3514-17.9716,23.8008-45.8225.2023-.873.5186-2.3627a1.5624,1.5624,0,0,1,1.8527-1.2041ZM21.9924,133.5867l-.6182.4141a1.5624,1.5624,0,0,1-2.3121-.6983q-.123-.2953-.243-.5919a87.7993,87.7993,0,0,1,.7454-67.2114q.3641-.8478,1.0011-2.22a1.5625,1.5625,0,0,1,2.3131-.6221l.9557.6688q9.0105,6.3062,23.7935,9.9056.7383.18,1.9989.4655a1.5624,1.5624,0,0,1,1.2023,1.7433q-.176,1.2272-.3332,2.4569a177.2064,177.2064,0,0,0-1.308,22.0211,179.7654,179.7654,0,0,0,1.0648,19.9705q.0938.8259.1965,1.6508a1.5625,1.5625,0,0,1-1.2318,1.7209q-.8056.1681-1.3108.2793-16.2391,3.5759-25.914,10.0464ZM77.9494,16.7522Q59.9919,34.64,53.2412,62.6926q-.0492.2051-.1127.4746a1.5624,1.5624,0,0,1-1.8689,1.166q-.56-.1272-1.118-.2609Q36.8819,60.874,29.28,55.5459l-2.0268-1.4185a1.5626,1.5626,0,0,1-.4107-2.1368q.4784-.7328.9715-1.4558a87.7089,87.7089,0,0,1,45.065-33.75q1.6-.5216,4.36-1.2645a.7357.7357,0,0,1,.71,1.2319ZM25.2982,142.6953l2.01-1.3463q7.7924-5.2181,21.3834-8.3726.9645-.2205,1.9324-.4252a1.5625,1.5625,0,0,1,1.8543,1.2018l0,.0019q.2929,1.3808.4815,2.1984,6.4063,27.7746,23.68,45.7987l.0424.0439a1.3223,1.3223,0,0,1-1.324,2.1865A87.6982,87.6982,0,0,1,25.72,146.2687q-.4548-.7334-.8949-1.4759a1.5626,1.5626,0,0,1,.473-2.0977Z" transform="translate(-12.5 -15.4948)"/></svg>