<svg xmlns="http://www.w3.org/2000/svg" viewBox="0 0 181.7049 199.8751"><path d="M127.7312,59.92a5.9415,5.9415,0,0,0,.6733-3.315V51.8394a5.6315,5.6315,0,0,0-.57-3.0558q-.57-.7773-2.6416-.777h-24.552a4.0453,4.0453,0,0,0-2.6416.57,3.606,3.606,0,0,0-.57,2.4344v5.6977a4.8136,4.8136,0,0,0,.8287,3.2633,3.8789,3.8789,0,0,0,2.9005.88H125.193A2.95,2.95,0,0,0,127.7312,59.92Z" transform="translate(-9.2726 -0.1249)"/><path d="M187.1979,11.8586C149.4729.2581,100.5641.1249,100.1249.1249c-.4435,0-49.339.1329-87.0817,11.7335L9.2726,13.0161l.009,87.2636c.0487.7453,1.2242,18.45,12.1462,39.18,6.4767,12.306,19.6387,23.3209,30.1434,32.7343,12.9269,11.5918,28.7641,20.77,47.0632,27.278l1.49.5279,1.4908-.5279c18.2547-6.4945,34.0473-15.6328,46.9565-27.1713,10.4872-9.3782,23.649-20.3621,30.1527-32.6322,11.09-20.9741,12.2039-38.6766,12.2439-39.4176l.0087-87.2349ZM73.6035,62.6134v62.8813q0,6.422-5.18,6.4228-3.3167,0-4.5581-1.5538a7.7644,7.7644,0,0,1-1.2432-4.869V85.404q-2.6953,3.938-5.18,4.2993a5.5414,5.5414,0,0,1-4.5582-1.3986A5.3634,5.3634,0,0,1,50.1913,83.85q0-2.5881,3.0041-6.9409a86.0487,86.0487,0,0,0,9.686-17.7144,144.6982,144.6982,0,0,0,6.06-19.2685,15.19,15.19,0,0,1,2.2794-6.06q1.45-1.9155,5.076-1.5023,3.4186.52,4.1437,3.0043.7233,2.4862-.5182,7.1481Q78.3688,48.4208,76.8667,53.29,75.3639,58.1606,73.6035,62.6134Zm76.1934,57.0282a13.5648,13.5648,0,0,1-1.502,2.8487q-2.0736,2.7973-4.7653,2.072a16.441,16.441,0,0,1-6.0085-3.5223,104.0257,104.0257,0,0,1-11.2917-10.5149,79.3868,79.3868,0,0,1-8.0805-10.5145v26.1055q0,3.3144-1.2432,4.7138-1.243,1.3978-4.2471,1.3984a6.6411,6.6411,0,0,1-4.5064-1.3984q-1.6074-1.3986-1.6058-4.7138V104.3617a53.0381,53.0381,0,0,1-6.5784,7.873q-3.6783,3.6252-9.2714,8.2876-4.56,3.5206-7.4589,3.9368a4.5315,4.5315,0,0,1-4.6618-2.1756,12.489,12.489,0,0,1-1.2432-2.59,4.3915,4.3915,0,0,1-.0518-2.59,7.3271,7.3271,0,0,1,1.6058-2.797,20.8228,20.8228,0,0,1,3.7294-3.2115q1.76-1.2432,4.1437-3.2115,2.3815-1.9668,4.9724-4.4545,2.5881-2.4866,5.18-5.3871,2.5882-2.8989,4.8688-6.0083H84.9986q-3.3166,0-4.7135-1.5023a6.0761,6.0761,0,0,1-1.3987-4.2991,6.5318,6.5318,0,0,1,1.295-4.4544q1.2944-1.45,4.8172-1.45h21.5476V72.7656H95.5653q-5.6988,0-7.9248-2.6936-2.2292-2.6927-2.2274-8.2873v-14.71q0-5.5941,2.2274-8.2356t7.9248-2.6416H130.58q5.3854,0,7.6143,2.5381,2.2265,2.54,2.2271,8.4428V61.7847q0,5.5941-2.0715,8.2873-2.0734,2.6953-7.77,2.6936H118.1487v7.5623h25.7949q3.3141,0,4.5579,1.45a6.7282,6.7282,0,0,1,1.2432,4.4545,6.3945,6.3945,0,0,1-1.2949,4.2991q-1.2968,1.5032-4.5062,1.5023H125.4A111.8777,111.8777,0,0,0,135.5526,103.17a89.2034,89.2034,0,0,0,8.8055,7.5108A24.902,24.902,0,0,1,148.191,114.1,7.6818,7.6818,0,0,1,149.9,117,4.3187,4.3187,0,0,1,149.7969,119.6416Z" transform="translate(-9.2726 -0.1249)"/></svg>