<svg xmlns="http://www.w3.org/2000/svg" viewBox="0 0 172.7148 168.2031"><path d="M32.5781,14.043H161.8555A22.726,22.726,0,0,1,183.34,34.082c.1368.9961.0977,2.0118.254,3.0078v91.1524c-.1563,1.4258-.1172,2.8711-.3516,4.2773a22.7307,22.7307,0,0,1-22.2266,19.2774H36.66a45.6833,45.6833,0,0,1-5.8985-.1953,22.7145,22.7145,0,0,1-18.73-15.5274,26.0072,26.0072,0,0,1-1.1523-6.582V36.3672c.1172-1.1524.1563-2.3242.3711-3.457A22.7615,22.7615,0,0,1,32.5781,14.043M69.1406,42.2266a14.5075,14.5075,0,0,0-9.59,5.1757A16.19,16.19,0,0,0,56.3086,57.52a37.2138,37.2138,0,0,0,3.34,14.4141A75.887,75.887,0,0,0,65.5078,82.91a64.6416,64.6416,0,0,0-7.9687,16.8945,28.4229,28.4229,0,0,0-1.0352,11.3086,14.8687,14.8687,0,0,0,3.9453,8.34,14.1716,14.1716,0,0,0,7.6563,3.9649,26.3473,26.3473,0,0,0,11.3086-.6446A63.4763,63.4763,0,0,0,97.168,114.59a64.022,64.022,0,0,0,17.5,8.125,26.3393,26.3393,0,0,0,11.9531.6446,14.0406,14.0406,0,0,0,8.0273-4.7266,15.0735,15.0735,0,0,0,3.2422-7.8516,28.16,28.16,0,0,0-.9961-10.664,64.6639,64.6639,0,0,0-8.0468-17.207,65.179,65.179,0,0,0,7.93-16.7969,28.0747,28.0747,0,0,0,1.0157-11.66,14.4081,14.4081,0,0,0-4.0821-8.2617,14.7018,14.7018,0,0,0-8.6328-3.9844,28.5032,28.5032,0,0,0-10.957,1.0547,63.9728,63.9728,0,0,0-16.9336,7.9688,69.6131,69.6131,0,0,0-14.9023-7.3633A30.3939,30.3939,0,0,0,69.1406,42.2266Z" transform="translate(-10.8789 -14.043)"/><path d="M69.2187,51.5039a15.9063,15.9063,0,0,1,7.8907.3711,48.7961,48.7961,0,0,1,12.07,5.1563,115.3927,115.3927,0,0,0-17.8711,17.871,48.2544,48.2544,0,0,1-5.2539-12.4609c-.6055-2.5976-.9961-5.41-.0977-7.9883A4.5256,4.5256,0,0,1,69.2187,51.5039Zm46.3086.8594a20.2294,20.2294,0,0,1,8.75-1.0742,5.1151,5.1151,0,0,1,3.9063,2.52,11.4842,11.4842,0,0,1,.5273,6.875,45.0773,45.0773,0,0,1-5.625,14.1992,113.7137,113.7137,0,0,0-17.8711-17.8711A53.1335,53.1335,0,0,1,115.5273,52.3633ZM76.6211,82.93A103.6329,103.6329,0,0,1,97.1875,62.3633a103.31,103.31,0,0,1,20.5859,20.5859A104.1476,104.1476,0,0,1,97.207,103.5156,104.3522,104.3522,0,0,1,76.6211,82.93M95.2148,69.9805a13.0983,13.0983,0,0,0-6.0156,23.32,13.1462,13.1462,0,0,0,16.1524-.1172,13.1375,13.1375,0,0,0,4.5507-7.0117,13.351,13.351,0,0,0-.3906-7.7735,13.1016,13.1016,0,0,0-6.25-7.09A12.9083,12.9083,0,0,0,95.2148,69.9805Z" transform="translate(-10.8789 -14.043)"/><path d="M96.2305,79.043a3.9949,3.9949,0,1,1-2.6953,2.3242A3.9964,3.9964,0,0,1,96.2305,79.043ZM71.2891,90.9375A115.6445,115.6445,0,0,0,89.18,108.8281a52.05,52.05,0,0,1-10.3711,4.668,20.7686,20.7686,0,0,1-8.2422,1.1133,5.5184,5.5184,0,0,1-3.9648-1.9531,8.0321,8.0321,0,0,1-1.211-4.9219,28.32,28.32,0,0,1,2.09-8.9453A61.897,61.897,0,0,1,71.2891,90.9375Zm33.9257,17.8906A114.5408,114.5408,0,0,0,123.0859,90.957a55.1278,55.1278,0,0,1,4.1993,8.8868,25.8506,25.8506,0,0,1,1.6992,8.4179c-.0586,1.7383-.3516,3.6524-1.66,4.9219-1.4453,1.3477-3.5351,1.5625-5.43,1.5234a27.6885,27.6885,0,0,1-8.3007-1.875A58.8057,58.8057,0,0,1,105.2148,108.8281Zm-93.8671,48.75a4.53,4.53,0,0,1,4.0625-2.5976H177.8516a6.6558,6.6558,0,0,1,2.832.332,4.5131,4.5131,0,0,1,2.793,3.8477,22.563,22.563,0,0,1-5.84,15.6054,22.826,22.826,0,0,1-15.7812,7.4805H32.5586a22.7417,22.7417,0,0,1-21.582-20.7422,7.6236,7.6236,0,0,1,.371-3.9258Z" transform="translate(-10.8789 -14.043)"/></svg>