<svg xmlns="http://www.w3.org/2000/svg" viewBox="0 0 200.0125 187.5024"><path d="M144.6625,7.325c30.5375,0,55.375,22.575,55.375,50.4875a48.1285,48.1285,0,0,1-7.15,24.8125,54.9017,54.9017,0,0,1-31.575,23.3875,31.5275,31.5275,0,0,1-8.825,1.4375,10.3124,10.3124,0,0,1-10.4983-10.1233q-.002-.1071-.0017-.2142a10.2966,10.2966,0,0,1,10.5-10.325,6.2256,6.2256,0,0,0,2.325-.4c9.05-2.5,16.2-7.65,20.2-14.5a26.0834,26.0834,0,0,0,4-14.075c0-16.375-15.375-29.7875-34.125-29.7875a38.6251,38.6251,0,0,0-18.5,4.75c-9.925,5.575-15.8,14.875-15.8,25.0375v86.7c0,17.575-9.9125,33.725-26.3375,42.8375a58.7447,58.7447,0,0,1-28.85,7.475c-30.525,0-55.375-22.5875-55.375-50.5a48.2814,48.2814,0,0,1,7.15-24.8125A54.87,54.87,0,0,1,38.75,96.1375,32.2306,32.2306,0,0,1,47.575,94.7a10.3329,10.3329,0,1,1,.2267,20.6642q-.1071,0-.2142-.0017a6.1578,6.1578,0,0,0-2.325.4c-9.0625,2.6875-16.2,7.875-20.2,14.4875a26.0176,26.0176,0,0,0-4,14.0875c0,16.375,15.375,29.775,34.3,29.775A38.625,38.625,0,0,0,73.875,169.375c9.9125-5.5875,15.7875-14.8875,15.7875-25.0375V57.85c0-17.575,9.9125-33.7125,26.3375-42.8375A55.3745,55.3745,0,0,1,144.6625,7.325Z" transform="translate(-0.025 -7.3226)"/></svg>