<svg xmlns="http://www.w3.org/2000/svg" viewBox="0 0 140.3321 155.5078"><path d="M61.27,60.9766A38.7305,38.7305,0,1,0,100,22.2461,38.73,38.73,0,0,0,61.27,60.9766Z" transform="translate(-29.8436 -22.2461)"/><path d="M170.1563,171.6992a5.6245,5.6245,0,0,1-5.625,6.0547H35.4883a5.6237,5.6237,0,0,1-5.625-6.0547C32.5,139.3164,56.1523,113.0273,86.875,107.09a3.0332,3.0332,0,0,1,2.8711,1.0157s7.793,9.1211,9.3945,11.0742a.7592.7592,0,0,1,.1172.7812l-11.8945,30.918a1.5174,1.5174,0,0,0,.2539,1.5625l11.9141,16.9531a.603.603,0,0,0,.9765,0l11.9141-16.9531a1.5176,1.5176,0,0,0,.2539-1.5625l-11.8945-30.918a.7975.7975,0,0,1,.1171-.7812c1.6016-1.9531,9.3946-11.0742,9.3946-11.0742a3.062,3.062,0,0,1,2.8711-1.0157c30.7031,5.9375,54.3359,32.2266,56.9921,64.6094Z" transform="translate(-29.8436 -22.2461)"/></svg>