<svg xmlns="http://www.w3.org/2000/svg" viewBox="0 0 162.8736 161.8946"><path d="M88.1641,104.4531l-64.336-32.5a9.6664,9.6664,0,0,1,0-17.2656L88.2422,22.1289A27.4279,27.4279,0,0,1,112.91,22.09l62.5781,31.4063a10.6917,10.6917,0,0,1,.0586,19.082l-62.5977,31.836a27.43,27.43,0,0,1-24.7851.039Z" transform="translate(-18.5107 -19.1797)"/><path d="M100.3711,143.8281A41.947,41.947,0,0,1,81.9336,139.57l-58.32-28.6719a8.8877,8.8877,0,1,1,7.832-15.957l58.32,28.6914a24.2063,24.2063,0,0,0,21.3281-.0586L168.3984,95a8.8831,8.8831,0,1,1,7.93,15.8984L119.043,139.4531A41.8731,41.8731,0,0,1,100.3711,143.8281Z" transform="translate(-18.5107 -19.1797)"/><path d="M100.3711,181.0742a41.9484,41.9484,0,0,1-18.4375-4.2578l-58.32-28.6719a8.8877,8.8877,0,0,1,7.832-15.957l58.32,28.6719a24.2068,24.2068,0,0,0,21.3281-.0586l57.3047-28.5742a8.8831,8.8831,0,1,1,7.93,15.8984L119.043,176.6992a41.8731,41.8731,0,0,1-18.6719,4.375Z" transform="translate(-18.5107 -19.1797)"/></svg>