<svg xmlns="http://www.w3.org/2000/svg" viewBox="0 0 194.6875 170"><path d="M185.3125,150.625H15A12.41,12.41,0,0,1,2.8125,138.4375V29.0625A12.41,12.41,0,0,1,15,16.875H185.3125A12.41,12.41,0,0,1,197.5,29.0625v109.375A12.0078,12.0078,0,0,1,185.3125,150.625ZM179.375,42.8125a7.6044,7.6044,0,0,0-7.5-7.5H28.75a7.6044,7.6044,0,0,0-7.5,7.5V125a7.6044,7.6044,0,0,0,7.5,7.5H171.875a7.6044,7.6044,0,0,0,7.5-7.5V42.8125ZM135.3125,55A27.1753,27.1753,0,0,1,162.5,80.9375H135.3125V55ZM159.375,85.3125a27.1893,27.1893,0,1,1-27.1875-27.5V83.75H159.375ZM79.0625,112.5a4.2721,4.2721,0,0,1-4.375-4.375v-42.5a4.375,4.375,0,0,1,8.75,0v42.5A4.2721,4.2721,0,0,1,79.0625,112.5Zm-18.4375,0a4.2721,4.2721,0,0,1-4.375-4.375V74.6875a4.375,4.375,0,0,1,8.75,0V108.125C65.3125,110.625,63.125,112.5,60.625,112.5Zm-18.125,0a4.2721,4.2721,0,0,1-4.375-4.375V83.75a4.375,4.375,0,0,1,8.75,0v24.375A4.2721,4.2721,0,0,1,42.5,112.5Zm5.625,56.25H153.75a9.0681,9.0681,0,0,1,0,18.125H48.125a9.0089,9.0089,0,0,1-8.75-9.0625C39.375,173.125,43.4375,168.75,48.125,168.75Z" transform="translate(-2.8125 -16.875)"/></svg>