<svg xmlns="http://www.w3.org/2000/svg" viewBox="0 0 171.4133 200.0046"><path d="M98.1733,81.1508v16.785h4.8032q9.769,0,9.7659-8.4931,0-8.2947-9.6652-8.2917H98.1733Zm64.5978-21.7744V12.5a12.4991,12.4991,0,0,0-12.5-12.5H50.2669a12.4993,12.4993,0,0,0-12.5,12.5V59.3764H14.4488v78.1267H37.7665v50.0011a12.5011,12.5011,0,0,0,12.5,12.5H150.2708a12.5008,12.5008,0,0,0,12.5-12.5V137.5031h23.091V59.3764Zm-12.5-43.7511V59.3764H50.2687l-.0012-43.7511H150.2711Zm-25.8767,73.381a15.7434,15.7434,0,0,1-5.8594,12.8056q-5.86,4.8206-14.6547,4.6176H98.1735v18.1277H87.0953v-52H104.991q19.4,0,19.4031,16.4494ZM44.1954,112.64l-3.8268,11.9176h-12.02l19.0342-52H60.41l18.6651,52H66.99L63.0956,112.64h-18.9ZM100.27,193.7544a6.25,6.25,0,1,1,6.25-6.25A6.2533,6.2533,0,0,1,100.27,193.7544Zm50.0011-18.75H50.2671l.0013-37.5007H150.2706V175.004Zm12.0058-73.1921q-5.855,4.8206-14.6519,4.6176h-5.7068v18.1277H130.84v-52h17.89q19.41,0,19.404,16.4494a15.7409,15.7409,0,0,1-5.8571,12.8056ZM146.8193,81.1508H141.918v16.785h4.7973q9.769,0,9.7722-8.4931Q156.4878,81.148,146.8193,81.1508Zm-93.0562.37H53.458a19.2072,19.2072,0,0,1-.9034,4.3977L46.6112,104.08H60.4774L54.5692,86.0526a19.9025,19.9025,0,0,1-.8059-4.5321Z" transform="translate(-14.4488 0.0001)"/></svg>