<svg xmlns="http://www.w3.org/2000/svg" viewBox="0 0 199.9811 187.5016"><path d="M154.5514,72.207a3.1117,3.1117,0,0,0-.5469,3.6914,43.7941,43.7941,0,0,1-5.3711,49.6875,3.1285,3.1285,0,0,0-.3515,3.5938l7.6562,13.2617a3.11,3.11,0,0,0,3.1446,1.5235,27.0054,27.0054,0,0,1,3.5742-.2344A25.01,25.01,0,1,1,137.4811,168.75a24.99,24.99,0,0,1,8.418-18.7109l-7.2266-12.5a3.1423,3.1423,0,0,0-4.082-1.25,43.4277,43.4277,0,0,1-18.9844,4.3359,43.903,43.903,0,0,1-14.8438-2.5781,3.1339,3.1339,0,0,0-3.7695,1.3672L92.13,147.832a3.1237,3.1237,0,0,0,.1563,3.3594A25.0124,25.0124,0,1,1,71.817,140.625a25.26,25.26,0,0,1,6.7969.918,3.1408,3.1408,0,0,0,3.5547-1.4453l4.2383-7.3438a3.1133,3.1133,0,0,0-.5664-3.8281,43.6736,43.6736,0,0,1-13.086-23.2813,3.1188,3.1188,0,0,0-3.0664-2.5195H51.7194a3.125,3.125,0,0,0-2.9688,2.168,25.029,25.029,0,1,1-.3711-16.66,3.09,3.09,0,0,0,2.91,1.9922H69.6686a3.12,3.12,0,0,0,3.0664-2.4805A43.7088,43.7088,0,0,1,89.1413,62.0508a3.1516,3.1516,0,0,0,.82-4.0625l-.43-.7422a3.1515,3.1515,0,0,0-3.34-1.5039,24.164,24.164,0,0,1-5.3515.4883A25.2522,25.2522,0,0,1,56.2311,30.918a25.002,25.002,0,1,1,44.2774,16.23,3.1274,3.1274,0,0,0-.3125,3.5743l1.289,2.2265a3.0971,3.0971,0,0,0,3.457,1.4649,43.8582,43.8582,0,0,1,37.7344,8.0664,3.13,3.13,0,0,0,4.1407-.2344l4.7265-4.7266a3.1148,3.1148,0,0,0,.6445-3.4765,25.0069,25.0069,0,1,1,11.5625,12.0312,3.1782,3.1782,0,0,0-3.6523.5664l-5.5469,5.5664Z" transform="translate(0 -6.2491)"/></svg>