<svg xmlns="http://www.w3.org/2000/svg" viewBox="0 0 147.14 174.73"><path d="M170,37.19a11.49,11.49,0,0,0-7.71-2.95c-.26,0-.52,0-.78,0s-2,.13-4.82.13A104.2,104.2,0,0,1,134,32c-11.25-2.68-24.23-15.07-28-17.51a11.65,11.65,0,0,0-12.57,0c-.46.3-14,14.37-27.35,17.53a105.55,105.55,0,0,1-22.78,2.39c-2.85,0-4.66-.11-4.84-.13s-.49,0-.74,0A11.49,11.49,0,0,0,30,37.19a10.75,10.75,0,0,0-3.59,8V72.54c0,101.12,68.42,114.14,71.32,114.66a12.58,12.58,0,0,0,4,0c2.9-.52,71.82-13.54,71.82-114.66V45.18A10.76,10.76,0,0,0,170,37.19ZM144.68,76.31,97.25,122.2a6.48,6.48,0,0,1-1.1,1.38,7.5,7.5,0,0,1-10.11,0,6.81,6.81,0,0,1-1.1-1.38L59.59,97.67a6.52,6.52,0,0,1,0-9.45,7.09,7.09,0,0,1,9.78,0l21.73,21,43.81-42.39a7.09,7.09,0,0,1,9.77,0A6.52,6.52,0,0,1,144.68,76.31Z" transform="translate(-26.43 -12.64)"/></svg>